<svg width="49" height="49" viewBox="0 0 49 49" fill="none" xmlns="http://www.w3.org/2000/svg">
<g id="File text">
<path id="Icon" d="M28.5834 4.08325H12.2501C11.1671 4.08325 10.1285 4.51346 9.36273 5.27923C8.59695 6.04501 8.16675 7.08362 8.16675 8.16659V40.8333C8.16675 41.9162 8.59695 42.9548 9.36273 43.7206C10.1285 44.4864 11.1671 44.9166 12.2501 44.9166H36.7501C37.833 44.9166 38.8717 44.4864 39.6374 43.7206C40.4032 42.9548 40.8334 41.9162 40.8334 40.8333V16.3333M28.5834 4.08325L40.8334 16.3333M28.5834 4.08325V16.3333H40.8334M32.6667 26.5416H16.3334M32.6667 34.7083H16.3334M20.4167 18.3749H16.3334" stroke="#8DACBB" stroke-width="4" stroke-linecap="round" stroke-linejoin="round"/>
</g>
</svg>
