<svg width="42" height="42" viewBox="0 0 42 42" fill="none" xmlns="http://www.w3.org/2000/svg">
<g clip-path="url(#clip0_60_96)">
<path d="M15.7761 32.8914C7.23363 35.4541 7.23363 28.6201 3.81665 27.7659M27.7355 38.0168V31.405C27.7996 30.5903 27.6895 29.7713 27.4126 29.0025C27.1357 28.2336 26.6983 27.5325 26.1295 26.9458C31.4942 26.3478 37.1322 24.3147 37.1322 14.9864C37.1318 12.601 36.2142 10.3072 34.5695 8.57955C35.3483 6.49264 35.2932 4.18592 34.4157 2.13855C34.4157 2.13855 32.3997 1.54058 27.7355 4.66711C23.8197 3.60584 19.6919 3.60584 15.7761 4.66711C11.1119 1.54058 9.09588 2.13855 9.09588 2.13855C8.21836 4.18592 8.16329 6.49264 8.94212 8.57955C7.2851 10.32 6.36661 12.6346 6.37938 15.0376C6.37938 24.2977 12.0174 26.3308 17.3821 26.9971C16.82 27.5779 16.3865 28.2706 16.1098 29.03C15.8331 29.7895 15.7194 30.5987 15.7761 31.405V38.0168" stroke="#4C4646" stroke-width="4" stroke-linecap="round" stroke-linejoin="round"/>
</g>
<defs>
<clipPath id="clip0_60_96">
<rect width="41.0037" height="41.0037" fill="white" transform="translate(0.399658 0.430176)"/>
</clipPath>
</defs>
</svg>
