<svg width="143" height="143" viewBox="0 0 143 143" fill="none" xmlns="http://www.w3.org/2000/svg">
<path d="M111.649 25.9574C91.3056 25.9574 96.3077 17.16 77.2201 17.16C72.6441 17.16 71.5001 20.02 71.5001 22.88V82.94C71.5001 89.2721 68.5485 94.38 57.2001 94.38C41.0096 94.38 34.3201 98.5671 34.3201 108.68C34.3201 115.495 35.7186 125.84 57.017 125.84C76.8054 125.84 77.2201 110.631 77.2201 102.96C77.2201 100.023 77.2201 91.7975 77.2201 82.94V48.62C77.2344 44.7447 77.7921 42.9 80.0801 42.9C94.7748 42.9 91.1511 51.48 111.54 51.48C111.54 51.48 117.26 51.48 117.26 46.6209C117.26 39.3136 117.26 34.1427 117.26 31.3685C117.26 26.9841 115.292 25.9574 111.649 25.9574Z" fill="#8DACBB"/>
</svg>
