<svg width="133" height="133" viewBox="0 0 133 133" fill="none" xmlns="http://www.w3.org/2000/svg">
<g clip-path="url(#clip0_387_185)">
<path d="M48.9736 119.196C46.5913 119.196 44.6597 117.265 44.6597 114.883V30.7675C44.6597 28.9099 45.8489 27.2609 47.6111 26.6746L127.093 0.220664C128.408 -0.21678 129.854 0.00376044 130.979 0.814747C132.103 1.62547 132.77 2.92742 132.77 4.31378V88.4288C132.77 90.8111 130.838 92.7428 128.456 92.7428C126.073 92.7428 124.142 90.8114 124.142 88.4288V10.2962L53.2872 33.8784V114.883C53.2875 117.265 51.3562 119.196 48.9736 119.196Z" fill="#8DACBB"/>
<path d="M106.241 70.3118C91.3652 70.3118 79.7124 78.2699 79.7124 88.4291C79.7124 98.5882 91.3655 106.546 106.241 106.546C121.117 106.546 132.77 98.5882 132.77 88.4291C132.77 78.2699 121.117 70.3118 106.241 70.3118Z" fill="#8DACBB"/>
<path d="M130.979 0.814991C129.855 0.00400458 128.409 -0.216536 127.094 0.220908L47.6111 26.6746C45.8489 27.2612 44.6597 28.9101 44.6597 30.7675V59.9303L132.77 30.3295V4.31403C132.77 2.92792 132.103 1.62598 130.979 0.814991Z" fill="#8DACBB"/>
<path d="M26.7588 96.7651C11.8828 96.7651 0.22998 104.723 0.22998 114.882C0.22998 125.042 11.883 133 26.7588 133C41.6345 133 53.2875 125.042 53.2875 114.882C53.2875 104.723 41.6345 96.7651 26.7588 96.7651Z" fill="#8DACBB"/>
<path d="M130.979 0.814991C129.855 0.00400458 128.409 -0.216536 127.094 0.220908L88.7148 12.9943V45.1299L132.77 30.3295V4.31403C132.77 2.92792 132.103 1.62598 130.979 0.814991Z" fill="#8DACBB"/>
</g>
<defs>
<clipPath id="clip0_387_185">
<rect width="133" height="133" fill="white"/>
</clipPath>
</defs>
</svg>
