<svg width="204" height="215" viewBox="0 0 204 215" fill="none" xmlns="http://www.w3.org/2000/svg">
<g id="Sparkle 1" clip-path="url(#clip0_69_45)">
<path id="Vector" d="M177.772 125.724C177.772 126.335 176.555 126.416 176.139 126.45C161.939 127.545 147.612 128.11 133.621 130.927C104.577 136.775 96.9499 149.446 92.5953 177.706C90.6935 190.034 90.0484 202.571 89.074 215C88.7716 215.007 88.5499 213.716 88.523 213.36C87.0311 192.952 86.5473 156.572 70.4999 142.112C55.2857 128.399 21.7527 128.124 2.00929 126.45C1.63297 126.409 0 126.147 0 125.905C13.2586 124.843 26.6651 124.184 39.7893 121.973C70.8963 116.73 80.3783 105.678 85.1966 74.8374C87.058 62.9258 87.6628 50.8193 88.523 38.8136C88.5499 38.4573 88.7716 37.1666 89.074 37.1734C90.4919 53.3132 90.9691 70.3134 94.8264 86.0835C102.494 117.442 123.803 120.77 152.464 123.902C160.857 124.816 169.358 125.334 177.778 125.73L177.772 125.724Z" fill="#AACADE"/>
<path id="Vector_2" d="M204 69.9705C204.067 70.5015 203.046 70.6225 202.696 70.6629C191.723 71.8258 174.23 71.2813 166.475 80.3427C158.72 89.4041 159.91 105.638 158.29 116.615C157.054 106.667 157.41 95.0843 153.438 85.754C146.954 70.5284 127.526 72.2359 113.837 70.7099C113.293 70.6494 112.715 70.636 112.574 69.9705C120.638 69.5806 129.502 69.2109 137.351 67.2346C149.097 64.2769 153.344 58.637 155.75 47.0145C157.309 39.479 157.524 31.6814 158.297 24.0518C160.703 40.5747 157.571 60.741 177.268 66.6632C185.634 69.1773 195.324 69.4932 204.013 69.9772L204 69.9705Z" fill="#AACADE"/>
<path id="Vector_3" d="M142.075 24.7844C142.142 25.3155 141.121 25.4432 140.771 25.4768C133.507 26.2297 123.89 25.6717 120.524 33.6442C118.38 38.7126 118.615 44.5743 117.856 49.9251C117.016 44.6684 117.312 38.9076 115.302 33.8929C112.91 27.9169 107.198 26.7406 101.419 25.9205C100.39 25.7726 93.6167 25.5507 93.6301 24.9659C99.8462 24.1324 108.858 24.697 113.313 19.5076C117.621 14.4929 116.848 6.16418 117.856 0C118.541 5.31719 118.38 11.0512 120.309 16.1398C123.467 24.4887 134.575 24.4013 142.082 24.7911L142.075 24.7844Z" fill="#AACADE"/>
</g>
<defs>
<clipPath id="clip0_69_45">
<rect width="204" height="215" fill="white"/>
</clipPath>
</defs>
</svg>
